<mxfile host="65bd71144e">
    <diagram id="Xwy4MLogNIPWX0uJKcdW" name="페이지-1">
        <mxGraphModel dx="1960" dy="1111" grid="1" gridSize="10" guides="1" tooltips="1" connect="1" arrows="1" fold="1" page="1" pageScale="1" pageWidth="827" pageHeight="1169" background="#114B5F" math="0" shadow="0">
            <root>
                <mxCell id="0"/>
                <mxCell id="1" parent="0"/>
                <mxCell id="2" value="&lt;font style=&quot;font-size: 12px;&quot;&gt;의사결정&lt;br&gt;비교 및 판단&lt;/font&gt;" style="rhombus;whiteSpace=wrap;html=1;fillColor=#6d8764;strokeColor=#3A5431;fontColor=#ffffff;rounded=1;glass=0;strokeWidth=1;shadow=0;" parent="1" vertex="1">
                    <mxGeometry x="5" y="71" width="90" height="90" as="geometry"/>
                </mxCell>
                <mxCell id="129" style="edgeStyle=none;html=1;exitX=0.5;exitY=1;exitDx=0;exitDy=0;entryX=0.5;entryY=0;entryDx=0;entryDy=0;" edge="1" parent="1" source="9" target="127">
                    <mxGeometry relative="1" as="geometry"/>
                </mxCell>
                <mxCell id="9" value="계정의 token 을 기반으로 권한에 맞는 data 호출" style="whiteSpace=wrap;html=1;fillColor=#F45B69;strokeColor=#C34651;fontColor=#E4FDE1;rounded=1;glass=0;strokeWidth=1;shadow=0;" parent="1" vertex="1">
                    <mxGeometry x="755" y="110" width="145" height="60" as="geometry"/>
                </mxCell>
                <mxCell id="22" style="edgeStyle=none;html=1;exitX=0.5;exitY=1;exitDx=0;exitDy=0;" parent="1" source="23" target="9" edge="1">
                    <mxGeometry relative="1" as="geometry"/>
                </mxCell>
                <mxCell id="23" value="&lt;font color=&quot;#ffffff&quot;&gt;시작 - Layout Page&lt;/font&gt;" style="ellipse;whiteSpace=wrap;html=1;fillStyle=auto;fillColor=#f0a30a;fontColor=#000000;strokeColor=#BD7000;" parent="1" vertex="1">
                    <mxGeometry x="755" y="30" width="146" height="50" as="geometry"/>
                </mxCell>
                <mxCell id="36" value="표시&lt;br&gt;화면으로 결과 출력" style="shape=document;whiteSpace=wrap;html=1;boundedLbl=1;fillColor=#76608a;strokeColor=#432D57;fontColor=#ffffff;rounded=1;glass=0;strokeWidth=1;shadow=0;" parent="1" vertex="1">
                    <mxGeometry x="105" y="79" width="90" height="70" as="geometry"/>
                </mxCell>
                <mxCell id="37" value="처리&lt;br&gt;작업 명시" style="whiteSpace=wrap;html=1;fillColor=#F45B69;strokeColor=#C34651;fontColor=#E4FDE1;rounded=1;glass=0;strokeWidth=1;shadow=0;" parent="1" vertex="1">
                    <mxGeometry x="110" y="9" width="80" height="50" as="geometry"/>
                </mxCell>
                <mxCell id="38" value="&lt;font color=&quot;#ffffff&quot;&gt;시작&lt;br&gt;끝&lt;/font&gt;" style="ellipse;whiteSpace=wrap;html=1;fillStyle=auto;fillColor=#f0a30a;fontColor=#000000;strokeColor=#BD7000;" parent="1" vertex="1">
                    <mxGeometry x="10" y="9" width="80" height="50" as="geometry"/>
                </mxCell>
                <mxCell id="132" style="edgeStyle=none;html=1;exitX=0.5;exitY=1;exitDx=0;exitDy=0;entryX=0.5;entryY=-0.047;entryDx=0;entryDy=0;entryPerimeter=0;" edge="1" parent="1" source="111" target="122">
                    <mxGeometry relative="1" as="geometry"/>
                </mxCell>
                <mxCell id="133" style="edgeStyle=orthogonalEdgeStyle;html=1;exitX=0;exitY=0.5;exitDx=0;exitDy=0;entryX=0.5;entryY=0;entryDx=0;entryDy=0;" edge="1" parent="1" source="111" target="128">
                    <mxGeometry relative="1" as="geometry">
                        <mxPoint x="220" y="565" as="targetPoint"/>
                    </mxGeometry>
                </mxCell>
                <mxCell id="111" value="타입 dropbox&lt;br&gt;선택 여부" style="rhombus;whiteSpace=wrap;html=1;fillColor=#6d8764;strokeColor=#3A5431;fontColor=#ffffff;rounded=1;glass=0;strokeWidth=1;shadow=0;" parent="1" vertex="1">
                    <mxGeometry x="787.5" y="310" width="80" height="80" as="geometry"/>
                </mxCell>
                <mxCell id="116" value="NO" style="text;html=1;align=center;verticalAlign=middle;resizable=0;points=[];autosize=1;strokeColor=none;fillColor=none;" parent="1" vertex="1">
                    <mxGeometry x="755" y="350" width="40" height="30" as="geometry"/>
                </mxCell>
                <mxCell id="117" value="YES" style="text;html=1;align=center;verticalAlign=middle;resizable=0;points=[];autosize=1;strokeColor=none;fillColor=none;" parent="1" vertex="1">
                    <mxGeometry x="827" y="380" width="50" height="30" as="geometry"/>
                </mxCell>
                <mxCell id="119" value="&lt;span style=&quot;color: rgb(228, 253, 225);&quot;&gt;socket 에서 받아온 data 를 테이블화 시켜 출력&lt;/span&gt;" style="shape=document;whiteSpace=wrap;html=1;boundedLbl=1;fillColor=#76608a;strokeColor=#432D57;fontColor=#ffffff;rounded=1;glass=0;strokeWidth=1;shadow=0;" parent="1" vertex="1">
                    <mxGeometry x="1276.75" y="541" width="160" height="110" as="geometry"/>
                </mxCell>
                <mxCell id="120" value="&lt;span style=&quot;color: rgb(228, 253, 225);&quot;&gt;tree data 에서 가져온 해당 트리별 data 내부 property 들을 이용하여 background url 과 icon 활성화&amp;nbsp;&lt;/span&gt;" style="shape=document;whiteSpace=wrap;html=1;boundedLbl=1;fillColor=#76608a;strokeColor=#432D57;fontColor=#ffffff;rounded=1;glass=0;strokeWidth=1;shadow=0;" parent="1" vertex="1">
                    <mxGeometry x="747.5" y="541" width="160" height="110" as="geometry"/>
                </mxCell>
                <mxCell id="124" style="edgeStyle=orthogonalEdgeStyle;html=1;exitX=0.5;exitY=1;exitDx=0;exitDy=0;" parent="1" source="122" target="128" edge="1">
                    <mxGeometry relative="1" as="geometry">
                        <mxPoint x="300" y="510" as="targetPoint"/>
                        <Array as="points">
                            <mxPoint x="828" y="490"/>
                            <mxPoint x="305" y="490"/>
                        </Array>
                    </mxGeometry>
                </mxCell>
                <mxCell id="125" style="edgeStyle=orthogonalEdgeStyle;html=1;exitX=0.5;exitY=1;exitDx=0;exitDy=0;entryX=0.5;entryY=0;entryDx=0;entryDy=0;" parent="1" source="122" target="120" edge="1">
                    <mxGeometry relative="1" as="geometry"/>
                </mxCell>
                <mxCell id="126" style="edgeStyle=orthogonalEdgeStyle;html=1;exitX=0.5;exitY=1;exitDx=0;exitDy=0;entryX=0.5;entryY=0;entryDx=0;entryDy=0;" parent="1" source="122" target="119" edge="1">
                    <mxGeometry relative="1" as="geometry">
                        <Array as="points">
                            <mxPoint x="828" y="490"/>
                            <mxPoint x="1357" y="490"/>
                        </Array>
                    </mxGeometry>
                </mxCell>
                <mxCell id="122" value="Card Style, Image Style, List Style 선택에 따른 조건부 컴포넌트 호출" style="whiteSpace=wrap;html=1;fillColor=#F45B69;strokeColor=#C34651;fontColor=#E4FDE1;rounded=1;glass=0;strokeWidth=1;shadow=0;" parent="1" vertex="1">
                    <mxGeometry x="738" y="420" width="180" height="50" as="geometry"/>
                </mxCell>
                <mxCell id="131" style="edgeStyle=none;html=1;entryX=0.5;entryY=0;entryDx=0;entryDy=0;" edge="1" parent="1" source="127" target="111">
                    <mxGeometry relative="1" as="geometry"/>
                </mxCell>
                <mxCell id="127" value="등록된 설비들의&lt;br&gt;모터 가동 상태 표기&lt;br&gt;[가동 - 정지 - 끊김]" style="shape=document;whiteSpace=wrap;html=1;boundedLbl=1;fillColor=#76608a;strokeColor=#432D57;fontColor=#ffffff;rounded=1;glass=0;strokeWidth=1;shadow=0;" parent="1" vertex="1">
                    <mxGeometry x="763" y="200" width="130" height="80" as="geometry"/>
                </mxCell>
                <mxCell id="136" style="edgeStyle=orthogonalEdgeStyle;html=1;entryX=0.5;entryY=0;entryDx=0;entryDy=0;" edge="1" parent="1" source="128" target="144">
                    <mxGeometry relative="1" as="geometry">
                        <mxPoint x="110" y="650" as="targetPoint"/>
                        <Array as="points">
                            <mxPoint x="120" y="586"/>
                        </Array>
                    </mxGeometry>
                </mxCell>
                <mxCell id="139" style="edgeStyle=orthogonalEdgeStyle;html=1;exitX=0.5;exitY=1;exitDx=0;exitDy=0;entryX=0.501;entryY=-0.028;entryDx=0;entryDy=0;entryPerimeter=0;" edge="1" parent="1" source="128" target="140">
                    <mxGeometry relative="1" as="geometry">
                        <mxPoint x="305.2105263157896" y="671" as="targetPoint"/>
                    </mxGeometry>
                </mxCell>
                <mxCell id="128" value="설비선택&lt;br&gt;Select Tree&lt;br&gt;선택 여부" style="rhombus;whiteSpace=wrap;html=1;fillColor=#6d8764;strokeColor=#3A5431;fontColor=#ffffff;rounded=1;glass=0;strokeWidth=1;shadow=0;" vertex="1" parent="1">
                    <mxGeometry x="260" y="541" width="90" height="90" as="geometry"/>
                </mxCell>
                <mxCell id="137" value="NO" style="text;html=1;align=center;verticalAlign=middle;resizable=0;points=[];autosize=1;strokeColor=none;fillColor=none;" vertex="1" parent="1">
                    <mxGeometry x="217" y="555" width="40" height="30" as="geometry"/>
                </mxCell>
                <mxCell id="138" value="YES" style="text;html=1;align=center;verticalAlign=middle;resizable=0;points=[];autosize=1;strokeColor=none;fillColor=none;" vertex="1" parent="1">
                    <mxGeometry x="305" y="631" width="50" height="30" as="geometry"/>
                </mxCell>
                <mxCell id="140" value="socket 에서 받아온 data 를 선택된 설비의 id 별로 반복시켜 하나의 카드 Component 로 보이도록 출력.&lt;br&gt;한 페이지당 15개의 카드로 페이지네이션." style="shape=document;whiteSpace=wrap;html=1;boundedLbl=1;fillColor=#76608a;strokeColor=#432D57;fontColor=#ffffff;rounded=1;glass=0;strokeWidth=1;shadow=0;" vertex="1" parent="1">
                    <mxGeometry x="208" y="671" width="193" height="110" as="geometry"/>
                </mxCell>
                <mxCell id="141" value="Card Style" style="text;html=1;align=center;verticalAlign=middle;resizable=0;points=[];autosize=1;strokeColor=none;fillColor=none;" vertex="1" parent="1">
                    <mxGeometry x="520" y="465" width="80" height="30" as="geometry"/>
                </mxCell>
                <mxCell id="142" value="Image Style" style="text;html=1;align=center;verticalAlign=middle;resizable=0;points=[];autosize=1;strokeColor=none;fillColor=none;" vertex="1" parent="1">
                    <mxGeometry x="821" y="495" width="90" height="30" as="geometry"/>
                </mxCell>
                <mxCell id="143" value="List Style" style="text;html=1;align=center;verticalAlign=middle;resizable=0;points=[];autosize=1;strokeColor=none;fillColor=none;" vertex="1" parent="1">
                    <mxGeometry x="1050" y="465" width="70" height="30" as="geometry"/>
                </mxCell>
                <mxCell id="144" value="전체 설비를 카드 Component 로 보이도록 출력.&lt;br&gt;한 페이지당 15개의 카드로 페이지네이션." style="shape=document;whiteSpace=wrap;html=1;boundedLbl=1;fillColor=#76608a;strokeColor=#432D57;fontColor=#ffffff;rounded=1;glass=0;strokeWidth=1;shadow=0;" vertex="1" parent="1">
                    <mxGeometry x="40" y="638" width="160" height="110" as="geometry"/>
                </mxCell>
            </root>
        </mxGraphModel>
    </diagram>
</mxfile>